<mxfile host="app.diagrams.net" modified="2024-01-06T19:30:02.337Z" agent="Mozilla/5.0 (X11; Linux x86_64; rv:109.0) Gecko/20100101 Firefox/115.0" etag="6FSWSspA0z1csw4qttrA" version="22.1.17" type="google">
  <diagram id="C5RBs43oDa-KdzZeNtuy" name="Page-1">
    <mxGraphModel dx="1434" dy="767" grid="1" gridSize="10" guides="1" tooltips="1" connect="1" arrows="1" fold="1" page="1" pageScale="1" pageWidth="827" pageHeight="1169" math="0" shadow="0">
      <root>
        <mxCell id="WIyWlLk6GJQsqaUBKTNV-0" />
        <mxCell id="WIyWlLk6GJQsqaUBKTNV-1" parent="WIyWlLk6GJQsqaUBKTNV-0" />
        <mxCell id="wd-Sl6ddA0uiSgcAs8QP-8" style="edgeStyle=orthogonalEdgeStyle;rounded=0;orthogonalLoop=1;jettySize=auto;html=1;entryX=0.5;entryY=0;entryDx=0;entryDy=0;" edge="1" parent="WIyWlLk6GJQsqaUBKTNV-1" source="wd-Sl6ddA0uiSgcAs8QP-0" target="wd-Sl6ddA0uiSgcAs8QP-5">
          <mxGeometry relative="1" as="geometry" />
        </mxCell>
        <mxCell id="wd-Sl6ddA0uiSgcAs8QP-0" value="&lt;div&gt;configuration file&lt;/div&gt;" style="ellipse;whiteSpace=wrap;html=1;" vertex="1" parent="WIyWlLk6GJQsqaUBKTNV-1">
          <mxGeometry x="80" y="90" width="120" height="70" as="geometry" />
        </mxCell>
        <mxCell id="wd-Sl6ddA0uiSgcAs8QP-12" style="edgeStyle=orthogonalEdgeStyle;rounded=0;orthogonalLoop=1;jettySize=auto;html=1;exitX=1;exitY=0.5;exitDx=0;exitDy=0;entryX=0;entryY=0.5;entryDx=0;entryDy=0;" edge="1" parent="WIyWlLk6GJQsqaUBKTNV-1" source="wd-Sl6ddA0uiSgcAs8QP-5" target="wd-Sl6ddA0uiSgcAs8QP-10">
          <mxGeometry relative="1" as="geometry" />
        </mxCell>
        <mxCell id="wd-Sl6ddA0uiSgcAs8QP-15" style="edgeStyle=orthogonalEdgeStyle;rounded=0;orthogonalLoop=1;jettySize=auto;html=1;exitX=0.75;exitY=1;exitDx=0;exitDy=0;entryX=0;entryY=0.5;entryDx=0;entryDy=0;" edge="1" parent="WIyWlLk6GJQsqaUBKTNV-1" source="wd-Sl6ddA0uiSgcAs8QP-5" target="wd-Sl6ddA0uiSgcAs8QP-11">
          <mxGeometry relative="1" as="geometry" />
        </mxCell>
        <mxCell id="wd-Sl6ddA0uiSgcAs8QP-29" style="edgeStyle=orthogonalEdgeStyle;rounded=0;orthogonalLoop=1;jettySize=auto;html=1;exitX=0.5;exitY=1;exitDx=0;exitDy=0;entryX=0.5;entryY=0;entryDx=0;entryDy=0;" edge="1" parent="WIyWlLk6GJQsqaUBKTNV-1" source="wd-Sl6ddA0uiSgcAs8QP-5" target="wd-Sl6ddA0uiSgcAs8QP-28">
          <mxGeometry relative="1" as="geometry" />
        </mxCell>
        <mxCell id="wd-Sl6ddA0uiSgcAs8QP-5" value="JsonFile" style="rounded=0;whiteSpace=wrap;html=1;" vertex="1" parent="WIyWlLk6GJQsqaUBKTNV-1">
          <mxGeometry x="70" y="190" width="140" height="30" as="geometry" />
        </mxCell>
        <mxCell id="wd-Sl6ddA0uiSgcAs8QP-13" style="edgeStyle=orthogonalEdgeStyle;rounded=0;orthogonalLoop=1;jettySize=auto;html=1;" edge="1" parent="WIyWlLk6GJQsqaUBKTNV-1" source="wd-Sl6ddA0uiSgcAs8QP-9" target="wd-Sl6ddA0uiSgcAs8QP-10">
          <mxGeometry relative="1" as="geometry" />
        </mxCell>
        <mxCell id="wd-Sl6ddA0uiSgcAs8QP-16" style="edgeStyle=orthogonalEdgeStyle;rounded=0;orthogonalLoop=1;jettySize=auto;html=1;exitX=0.5;exitY=1;exitDx=0;exitDy=0;entryX=1;entryY=0.5;entryDx=0;entryDy=0;" edge="1" parent="WIyWlLk6GJQsqaUBKTNV-1" source="wd-Sl6ddA0uiSgcAs8QP-9" target="wd-Sl6ddA0uiSgcAs8QP-11">
          <mxGeometry relative="1" as="geometry" />
        </mxCell>
        <mxCell id="wd-Sl6ddA0uiSgcAs8QP-9" value="&lt;div&gt;get_user_name&lt;/div&gt;" style="rounded=0;whiteSpace=wrap;html=1;" vertex="1" parent="WIyWlLk6GJQsqaUBKTNV-1">
          <mxGeometry x="500" y="190" width="140" height="30" as="geometry" />
        </mxCell>
        <mxCell id="wd-Sl6ddA0uiSgcAs8QP-10" value="Cron" style="rounded=0;whiteSpace=wrap;html=1;" vertex="1" parent="WIyWlLk6GJQsqaUBKTNV-1">
          <mxGeometry x="290" y="190" width="140" height="30" as="geometry" />
        </mxCell>
        <mxCell id="wd-Sl6ddA0uiSgcAs8QP-11" value="Startup" style="rounded=0;whiteSpace=wrap;html=1;" vertex="1" parent="WIyWlLk6GJQsqaUBKTNV-1">
          <mxGeometry x="290" y="250" width="140" height="30" as="geometry" />
        </mxCell>
        <mxCell id="wd-Sl6ddA0uiSgcAs8QP-20" value="" style="endArrow=none;dashed=1;html=1;rounded=0;" edge="1" parent="WIyWlLk6GJQsqaUBKTNV-1">
          <mxGeometry width="50" height="50" relative="1" as="geometry">
            <mxPoint x="40" y="330" as="sourcePoint" />
            <mxPoint x="40" y="50" as="targetPoint" />
          </mxGeometry>
        </mxCell>
        <mxCell id="wd-Sl6ddA0uiSgcAs8QP-21" value="" style="endArrow=none;dashed=1;html=1;rounded=0;" edge="1" parent="WIyWlLk6GJQsqaUBKTNV-1">
          <mxGeometry width="50" height="50" relative="1" as="geometry">
            <mxPoint x="680" y="330" as="sourcePoint" />
            <mxPoint x="680" y="50" as="targetPoint" />
          </mxGeometry>
        </mxCell>
        <mxCell id="wd-Sl6ddA0uiSgcAs8QP-22" value="" style="endArrow=none;dashed=1;html=1;rounded=0;" edge="1" parent="WIyWlLk6GJQsqaUBKTNV-1">
          <mxGeometry width="50" height="50" relative="1" as="geometry">
            <mxPoint x="40" y="50" as="sourcePoint" />
            <mxPoint x="680" y="50" as="targetPoint" />
          </mxGeometry>
        </mxCell>
        <mxCell id="wd-Sl6ddA0uiSgcAs8QP-23" value="" style="endArrow=none;dashed=1;html=1;rounded=0;" edge="1" parent="WIyWlLk6GJQsqaUBKTNV-1">
          <mxGeometry width="50" height="50" relative="1" as="geometry">
            <mxPoint x="40" y="330" as="sourcePoint" />
            <mxPoint x="680" y="330" as="targetPoint" />
          </mxGeometry>
        </mxCell>
        <mxCell id="wd-Sl6ddA0uiSgcAs8QP-24" value="&lt;b&gt;&lt;font style=&quot;font-size: 13px;&quot;&gt;configuration_code&lt;/font&gt;&lt;/b&gt;" style="text;html=1;strokeColor=none;fillColor=none;align=center;verticalAlign=middle;whiteSpace=wrap;rounded=0;" vertex="1" parent="WIyWlLk6GJQsqaUBKTNV-1">
          <mxGeometry x="40" y="20" width="120" height="30" as="geometry" />
        </mxCell>
        <mxCell id="wd-Sl6ddA0uiSgcAs8QP-27" style="edgeStyle=orthogonalEdgeStyle;rounded=0;orthogonalLoop=1;jettySize=auto;html=1;exitX=0;exitY=0.5;exitDx=0;exitDy=0;entryX=0.5;entryY=0;entryDx=0;entryDy=0;" edge="1" parent="WIyWlLk6GJQsqaUBKTNV-1" source="wd-Sl6ddA0uiSgcAs8QP-25" target="wd-Sl6ddA0uiSgcAs8QP-26">
          <mxGeometry relative="1" as="geometry" />
        </mxCell>
        <mxCell id="wd-Sl6ddA0uiSgcAs8QP-25" value="&lt;div&gt;Database&lt;/div&gt;" style="ellipse;whiteSpace=wrap;html=1;" vertex="1" parent="WIyWlLk6GJQsqaUBKTNV-1">
          <mxGeometry x="388" y="355" width="112" height="50" as="geometry" />
        </mxCell>
        <mxCell id="wd-Sl6ddA0uiSgcAs8QP-32" style="edgeStyle=orthogonalEdgeStyle;rounded=0;orthogonalLoop=1;jettySize=auto;html=1;exitX=0.5;exitY=1;exitDx=0;exitDy=0;" edge="1" parent="WIyWlLk6GJQsqaUBKTNV-1" source="wd-Sl6ddA0uiSgcAs8QP-26" target="wd-Sl6ddA0uiSgcAs8QP-31">
          <mxGeometry relative="1" as="geometry" />
        </mxCell>
        <mxCell id="wd-Sl6ddA0uiSgcAs8QP-38" style="edgeStyle=orthogonalEdgeStyle;rounded=0;orthogonalLoop=1;jettySize=auto;html=1;exitX=1;exitY=0.5;exitDx=0;exitDy=0;entryX=0.5;entryY=0;entryDx=0;entryDy=0;" edge="1" parent="WIyWlLk6GJQsqaUBKTNV-1" source="wd-Sl6ddA0uiSgcAs8QP-26" target="wd-Sl6ddA0uiSgcAs8QP-34">
          <mxGeometry relative="1" as="geometry" />
        </mxCell>
        <mxCell id="wd-Sl6ddA0uiSgcAs8QP-26" value="File" style="rounded=0;whiteSpace=wrap;html=1;" vertex="1" parent="WIyWlLk6GJQsqaUBKTNV-1">
          <mxGeometry x="290" y="450" width="140" height="30" as="geometry" />
        </mxCell>
        <mxCell id="wd-Sl6ddA0uiSgcAs8QP-30" style="edgeStyle=orthogonalEdgeStyle;rounded=0;orthogonalLoop=1;jettySize=auto;html=1;exitX=1;exitY=0.5;exitDx=0;exitDy=0;entryX=0;entryY=0.5;entryDx=0;entryDy=0;" edge="1" parent="WIyWlLk6GJQsqaUBKTNV-1" source="wd-Sl6ddA0uiSgcAs8QP-28" target="wd-Sl6ddA0uiSgcAs8QP-26">
          <mxGeometry relative="1" as="geometry" />
        </mxCell>
        <mxCell id="wd-Sl6ddA0uiSgcAs8QP-33" style="edgeStyle=orthogonalEdgeStyle;rounded=0;orthogonalLoop=1;jettySize=auto;html=1;exitX=0.5;exitY=1;exitDx=0;exitDy=0;entryX=0;entryY=0.75;entryDx=0;entryDy=0;" edge="1" parent="WIyWlLk6GJQsqaUBKTNV-1" source="wd-Sl6ddA0uiSgcAs8QP-28" target="wd-Sl6ddA0uiSgcAs8QP-31">
          <mxGeometry relative="1" as="geometry" />
        </mxCell>
        <mxCell id="wd-Sl6ddA0uiSgcAs8QP-28" value="Messages" style="rounded=0;whiteSpace=wrap;html=1;" vertex="1" parent="WIyWlLk6GJQsqaUBKTNV-1">
          <mxGeometry x="70" y="450" width="140" height="30" as="geometry" />
        </mxCell>
        <mxCell id="wd-Sl6ddA0uiSgcAs8QP-37" style="edgeStyle=orthogonalEdgeStyle;rounded=0;orthogonalLoop=1;jettySize=auto;html=1;exitX=1;exitY=0.5;exitDx=0;exitDy=0;entryX=0.5;entryY=1;entryDx=0;entryDy=0;" edge="1" parent="WIyWlLk6GJQsqaUBKTNV-1" source="wd-Sl6ddA0uiSgcAs8QP-31" target="wd-Sl6ddA0uiSgcAs8QP-34">
          <mxGeometry relative="1" as="geometry" />
        </mxCell>
        <mxCell id="wd-Sl6ddA0uiSgcAs8QP-31" value="&lt;div&gt;FileIndex&lt;/div&gt;" style="rounded=0;whiteSpace=wrap;html=1;" vertex="1" parent="WIyWlLk6GJQsqaUBKTNV-1">
          <mxGeometry x="290" y="540" width="140" height="30" as="geometry" />
        </mxCell>
        <mxCell id="wd-Sl6ddA0uiSgcAs8QP-34" value="InotifyWatch" style="rounded=0;whiteSpace=wrap;html=1;" vertex="1" parent="WIyWlLk6GJQsqaUBKTNV-1">
          <mxGeometry x="600" y="490" width="140" height="30" as="geometry" />
        </mxCell>
        <mxCell id="wd-Sl6ddA0uiSgcAs8QP-39" value="" style="endArrow=none;dashed=1;html=1;rounded=0;" edge="1" parent="WIyWlLk6GJQsqaUBKTNV-1">
          <mxGeometry width="50" height="50" relative="1" as="geometry">
            <mxPoint x="240" y="610" as="sourcePoint" />
            <mxPoint x="240" y="330" as="targetPoint" />
          </mxGeometry>
        </mxCell>
        <mxCell id="wd-Sl6ddA0uiSgcAs8QP-40" value="" style="endArrow=none;dashed=1;html=1;rounded=0;" edge="1" parent="WIyWlLk6GJQsqaUBKTNV-1">
          <mxGeometry width="50" height="50" relative="1" as="geometry">
            <mxPoint x="520" y="605" as="sourcePoint" />
            <mxPoint x="520" y="330" as="targetPoint" />
          </mxGeometry>
        </mxCell>
        <mxCell id="wd-Sl6ddA0uiSgcAs8QP-41" value="" style="endArrow=none;dashed=1;html=1;rounded=0;" edge="1" parent="WIyWlLk6GJQsqaUBKTNV-1">
          <mxGeometry width="50" height="50" relative="1" as="geometry">
            <mxPoint x="240" y="610" as="sourcePoint" />
            <mxPoint x="520" y="610" as="targetPoint" />
          </mxGeometry>
        </mxCell>
        <mxCell id="wd-Sl6ddA0uiSgcAs8QP-43" value="&lt;b&gt;&lt;font style=&quot;font-size: 13px;&quot;&gt;file_management_code&lt;/font&gt;&lt;/b&gt;" style="text;html=1;strokeColor=none;fillColor=none;align=center;verticalAlign=middle;whiteSpace=wrap;rounded=0;" vertex="1" parent="WIyWlLk6GJQsqaUBKTNV-1">
          <mxGeometry x="240" y="610" width="150" height="30" as="geometry" />
        </mxCell>
        <mxCell id="wd-Sl6ddA0uiSgcAs8QP-44" value="" style="endArrow=none;dashed=1;html=1;rounded=0;" edge="1" parent="WIyWlLk6GJQsqaUBKTNV-1">
          <mxGeometry width="50" height="50" relative="1" as="geometry">
            <mxPoint x="40" y="410" as="sourcePoint" />
            <mxPoint x="240" y="410" as="targetPoint" />
          </mxGeometry>
        </mxCell>
        <mxCell id="wd-Sl6ddA0uiSgcAs8QP-45" value="" style="endArrow=none;dashed=1;html=1;rounded=0;" edge="1" parent="WIyWlLk6GJQsqaUBKTNV-1">
          <mxGeometry width="50" height="50" relative="1" as="geometry">
            <mxPoint x="40" y="519" as="sourcePoint" />
            <mxPoint x="240" y="519" as="targetPoint" />
          </mxGeometry>
        </mxCell>
        <mxCell id="wd-Sl6ddA0uiSgcAs8QP-46" value="" style="endArrow=none;dashed=1;html=1;rounded=0;" edge="1" parent="WIyWlLk6GJQsqaUBKTNV-1">
          <mxGeometry width="50" height="50" relative="1" as="geometry">
            <mxPoint x="40" y="520" as="sourcePoint" />
            <mxPoint x="40" y="410" as="targetPoint" />
          </mxGeometry>
        </mxCell>
        <mxCell id="wd-Sl6ddA0uiSgcAs8QP-47" value="" style="endArrow=none;dashed=1;html=1;rounded=0;" edge="1" parent="WIyWlLk6GJQsqaUBKTNV-1">
          <mxGeometry width="50" height="50" relative="1" as="geometry">
            <mxPoint x="520" y="449" as="sourcePoint" />
            <mxPoint x="760" y="450" as="targetPoint" />
          </mxGeometry>
        </mxCell>
        <mxCell id="wd-Sl6ddA0uiSgcAs8QP-48" value="" style="endArrow=none;dashed=1;html=1;rounded=0;" edge="1" parent="WIyWlLk6GJQsqaUBKTNV-1">
          <mxGeometry width="50" height="50" relative="1" as="geometry">
            <mxPoint x="520" y="570" as="sourcePoint" />
            <mxPoint x="760" y="571" as="targetPoint" />
          </mxGeometry>
        </mxCell>
        <mxCell id="wd-Sl6ddA0uiSgcAs8QP-49" value="" style="endArrow=none;dashed=1;html=1;rounded=0;" edge="1" parent="WIyWlLk6GJQsqaUBKTNV-1">
          <mxGeometry width="50" height="50" relative="1" as="geometry">
            <mxPoint x="760" y="570" as="sourcePoint" />
            <mxPoint x="760" y="450" as="targetPoint" />
          </mxGeometry>
        </mxCell>
        <mxCell id="wd-Sl6ddA0uiSgcAs8QP-50" value="&lt;b&gt;inotify_management_code&lt;/b&gt;" style="text;html=1;strokeColor=none;fillColor=none;align=center;verticalAlign=middle;whiteSpace=wrap;rounded=0;" vertex="1" parent="WIyWlLk6GJQsqaUBKTNV-1">
          <mxGeometry x="610" y="420" width="150" height="30" as="geometry" />
        </mxCell>
        <mxCell id="wd-Sl6ddA0uiSgcAs8QP-53" value="&lt;b&gt;messages_code&lt;/b&gt;" style="text;html=1;strokeColor=none;fillColor=none;align=center;verticalAlign=middle;whiteSpace=wrap;rounded=0;" vertex="1" parent="WIyWlLk6GJQsqaUBKTNV-1">
          <mxGeometry x="40" y="380" width="90" height="30" as="geometry" />
        </mxCell>
        <mxCell id="wd-Sl6ddA0uiSgcAs8QP-54" value="antivirus" style="rounded=0;whiteSpace=wrap;html=1;" vertex="1" parent="WIyWlLk6GJQsqaUBKTNV-1">
          <mxGeometry x="45" y="810" width="160" height="40" as="geometry" />
        </mxCell>
        <mxCell id="wd-Sl6ddA0uiSgcAs8QP-57" style="edgeStyle=orthogonalEdgeStyle;rounded=0;orthogonalLoop=1;jettySize=auto;html=1;exitX=0.5;exitY=1;exitDx=0;exitDy=0;entryX=0.5;entryY=0;entryDx=0;entryDy=0;" edge="1" parent="WIyWlLk6GJQsqaUBKTNV-1" source="wd-Sl6ddA0uiSgcAs8QP-56" target="wd-Sl6ddA0uiSgcAs8QP-54">
          <mxGeometry relative="1" as="geometry" />
        </mxCell>
        <mxCell id="wd-Sl6ddA0uiSgcAs8QP-56" value="configuration_code" style="rounded=0;whiteSpace=wrap;html=1;dashed=1;dashPattern=12 12;" vertex="1" parent="WIyWlLk6GJQsqaUBKTNV-1">
          <mxGeometry x="40" y="700" width="170" height="60" as="geometry" />
        </mxCell>
        <mxCell id="wd-Sl6ddA0uiSgcAs8QP-59" style="edgeStyle=orthogonalEdgeStyle;rounded=0;orthogonalLoop=1;jettySize=auto;html=1;entryX=1;entryY=0.5;entryDx=0;entryDy=0;" edge="1" parent="WIyWlLk6GJQsqaUBKTNV-1" source="wd-Sl6ddA0uiSgcAs8QP-58" target="wd-Sl6ddA0uiSgcAs8QP-54">
          <mxGeometry relative="1" as="geometry" />
        </mxCell>
        <mxCell id="wd-Sl6ddA0uiSgcAs8QP-58" value="inotify_management_code" style="rounded=0;whiteSpace=wrap;html=1;dashed=1;dashPattern=12 12;" vertex="1" parent="WIyWlLk6GJQsqaUBKTNV-1">
          <mxGeometry x="285" y="800" width="170" height="60" as="geometry" />
        </mxCell>
        <mxCell id="wd-Sl6ddA0uiSgcAs8QP-61" style="edgeStyle=orthogonalEdgeStyle;rounded=0;orthogonalLoop=1;jettySize=auto;html=1;exitX=0.5;exitY=0;exitDx=0;exitDy=0;entryX=0.5;entryY=1;entryDx=0;entryDy=0;" edge="1" parent="WIyWlLk6GJQsqaUBKTNV-1" source="wd-Sl6ddA0uiSgcAs8QP-60" target="wd-Sl6ddA0uiSgcAs8QP-54">
          <mxGeometry relative="1" as="geometry" />
        </mxCell>
        <mxCell id="wd-Sl6ddA0uiSgcAs8QP-60" value="FileIndex" style="rounded=0;whiteSpace=wrap;html=1;" vertex="1" parent="WIyWlLk6GJQsqaUBKTNV-1">
          <mxGeometry x="45" y="920" width="160" height="40" as="geometry" />
        </mxCell>
      </root>
    </mxGraphModel>
  </diagram>
</mxfile>
